# xmcd CD database file
# Copyright (C) 1997 Ti Kan
# 
# Track frame offsets:
#     150
#     13865
#     25430
#     40575
#     54064
#     74960
#     88182
#     107490
#     118940
#     133440
# 
# Disc length: 1976 seconds
# 
# Revision: 1
# Processed by: cddbd v1.4b41PL1 Copyright (c) Steve Scherf et al.
# Submitted via: DiscPlay 4.0.4
# 
DISCID=9007b60a
DTITLE=Various Artist - Country Hits Of The 70's
DYEAR=1900
DGENRE=
TTITLE0=Cool Miners Daughter
TTITLE1=Help Me Make It Through The Night
TTITLE2=Its Not Love (But Its Not Bad)
TTITLE3=Come Live With Me
TTITLE4=Big Four Poster Bed
TTITLE5=Misty
TTITLE6=El Paso City
TTITLE7=Heaven's Just A Sin Away
TTITLE8=Tulsa Time
TTITLE9=If I Said You Had A Beautiful Body
EXTD=
EXTT0=Loretta Lynn\n
EXTT1=Sammi Smith\n
EXTT2=Merle Haggard\n
EXTT3=Roy Clark\n
EXTT4=Brenda Lee\n
EXTT5=Ray Stevens\n
EXTT6=Marty Robbins\n
EXTT7=The Kendalls\n
EXTT8=Don Williams\n
EXTT9=Bellamy Bros.\n
PLAYORDER=
